<svg version="1.1" viewBox="0.0 0.0 768.0 384.0" fill="none" stroke="none" stroke-linecap="square" stroke-miterlimit="10" xmlns:xlink="http://www.w3.org/1999/xlink" xmlns="http://www.w3.org/2000/svg"><clipPath id="g16eb664083c_0_5.0"><path d="m0 0l768.0 0l0 384.0l-768.0 0l0 -384.0z" clip-rule="nonzero"/></clipPath><g clip-path="url(#g16eb664083c_0_5.0)"><path fill="#ffffff" d="m0 0l768.0 0l0 384.0l-768.0 0z" fill-rule="evenodd"/><g filter="url(#shadowFilter-g16eb664083c_0_5.1)"><use xlink:href="#g16eb664083c_0_5.1" transform="matrix(1.0 0.0 0.0 1.0 0.0 9.0)"/></g><defs><filter id="shadowFilter-g16eb664083c_0_5.1" filterUnits="userSpaceOnUse"><feGaussianBlur in="SourceAlpha" stdDeviation="8.5" result="blur"/><feComponentTransfer in="blur" color-interpolation-filters="sRGB"><feFuncR type="linear" slope="0" intercept="0.0"/><feFuncG type="linear" slope="0" intercept="0.0"/><feFuncB type="linear" slope="0" intercept="0.0"/><feFuncA type="linear" slope="0.89" intercept="0"/></feComponentTransfer></filter></defs><g id="g16eb664083c_0_5.1"><path fill="#000000" fill-opacity="0.0" d="m76.437775 98.7359c6.014061 6.9947815 25.294395 14.606171 36.084396 41.96872c10.789993 27.362549 18.396042 91.96396 28.655579 122.206604c10.259552 30.242615 18.043121 48.75702 32.901672 59.249207c14.858566 10.492157 35.37703 3.498108 56.24965 3.7038574c20.87262 0.20578003 52.535553 3.2912903 68.986084 -2.4692383c16.450531 -5.7605286 22.641815 -19.955872 29.717102 -32.093872c7.075287 -12.13797 8.135559 -29.418823 12.734589 -40.734085c4.598999 -11.315262 9.729706 -22.631256 14.859467 -27.157501c5.1297607 -4.526245 9.374329 -7.612091 15.919159 0c6.5448303 7.6121063 16.451141 32.299988 23.349792 45.672623c6.8986816 13.37262 9.551575 26.53946 18.042206 34.56311c8.490662 8.023621 20.165863 12.755646 32.901672 13.578735c12.735809 0.8230896 33.077057 -3.2912598 43.513214 -8.640228c10.436157 -5.348999 13.9739685 -12.96109 19.10373 -23.453613c5.1297913 -10.492554 6.5451355 -29.009094 11.674896 -39.501633c5.1297607 -10.492538 12.73584 -23.659393 19.10376 -23.453613c6.367859 0.20576477 13.266541 12.961426 19.103699 24.688232c5.837158 11.726822 10.435547 35.38585 15.919128 45.672623c5.4836426 10.286743 3.8928833 12.344818 16.982544 16.048004c13.089661 3.7031555 42.27478 5.348236 61.55542 6.17099c19.28064 0.8227234 45.106995 -1.0288696 54.128418 -1.2346497" fill-rule="evenodd"/><path stroke="#b7b7b7" stroke-width="4.0" stroke-linejoin="round" stroke-linecap="butt" d="m76.437775 98.7359c6.014061 6.9947815 25.294395 14.606171 36.084396 41.96872c10.789993 27.362549 18.396042 91.96396 28.655579 122.206604c10.259552 30.242615 18.043121 48.75702 32.901672 59.249207c14.858566 10.492157 35.37703 3.498108 56.24965 3.7038574c20.87262 0.20578003 52.535553 3.2912903 68.986084 -2.4692383c16.450531 -5.7605286 22.641815 -19.955872 29.717102 -32.093872c7.075287 -12.13797 8.135559 -29.418823 12.734589 -40.734085c4.598999 -11.315262 9.729706 -22.631256 14.859467 -27.157501c5.1297607 -4.526245 9.374329 -7.612091 15.919159 0c6.5448303 7.6121063 16.451141 32.299988 23.349792 45.672623c6.8986816 13.37262 9.551575 26.53946 18.042206 34.56311c8.490662 8.023621 20.165863 12.755646 32.901672 13.578735c12.735809 0.8230896 33.077057 -3.2912598 43.513214 -8.640228c10.436157 -5.348999 13.9739685 -12.96109 19.10373 -23.453613c5.1297913 -10.492554 6.5451355 -29.009094 11.674896 -39.501633c5.1297607 -10.492538 12.73584 -23.659393 19.10376 -23.453613c6.367859 0.20576477 13.266541 12.961426 19.103699 24.688232c5.837158 11.726822 10.435547 35.38585 15.919128 45.672623c5.4836426 10.286743 3.8928833 12.344818 16.982544 16.048004c13.089661 3.7031555 42.27478 5.348236 61.55542 6.17099c19.28064 0.8227234 45.106995 -1.0288696 54.128418 -1.2346497" fill-rule="evenodd"/></g><path fill="#000000" fill-opacity="0.0" d="m130.55948 104.90988c6.721756 10.697952 23.809387 49.17 40.33049 64.18771c16.521118 15.017715 35.730255 20.569946 58.79619 25.918564c23.065948 5.3486176 57.134552 4.7327423 79.59946 6.1731415c22.464905 1.4403992 38.73944 -4.319763 55.189972 2.4692535c16.450531 6.7890167 24.940247 30.85852 43.513214 38.264847c18.572968 7.4063263 49.06833 5.144272 67.92456 6.173126c18.856201 1.0288696 37.677277 0 45.212738 0" fill-rule="evenodd"/><path stroke="#595959" stroke-width="3.0" stroke-linejoin="round" stroke-linecap="butt" d="m130.55948 104.90988c6.721756 10.697952 23.809387 49.17 40.33049 64.18771c16.521118 15.017715 35.730255 20.569946 58.79619 25.918564c23.065948 5.3486176 57.134552 4.7327423 79.59946 6.1731415c22.464905 1.4403992 38.73944 -4.319763 55.189972 2.4692535c16.450531 6.7890167 24.940247 30.85852 43.513214 38.264847c18.572968 7.4063263 49.06833 5.144272 67.92456 6.173126c18.856201 1.0288696 37.677277 0 45.212738 0" fill-rule="evenodd"/><path fill="#000000" fill-opacity="0.0" d="m120.43709 115.962814c5.660225 13.783798 18.572342 61.923874 33.96135 82.70282c15.389008 20.778946 35.0235 33.74147 58.372696 41.97087c23.349197 8.229416 60.142197 6.377121 81.72249 7.4056244c21.580322 1.0284882 39.79944 -1.0288544 47.759308 -1.2346344" fill-rule="evenodd"/><path stroke="#595959" stroke-width="3.0" stroke-linejoin="round" stroke-linecap="butt" stroke-dasharray="12.0,9.0" d="m120.43709 115.962814c5.660225 13.783798 18.572342 61.923874 33.96135 82.70282c15.389008 20.778946 35.0235 33.74147 58.372696 41.97087c23.349197 8.229416 60.142197 6.377121 81.72249 7.4056244c21.580322 1.0284882 39.79944 -1.0288544 47.759308 -1.2346344" fill-rule="evenodd"/><path fill="#000000" fill-opacity="0.0" d="m114.73978 129.13684c6.705414 17.770172 25.036728 82.26727 40.232468 106.62105c15.195755 24.353775 29.892487 30.655258 50.94203 39.501602c21.049545 8.8463745 54.83612 10.490753 75.355225 13.576599c20.519073 3.0858765 39.799408 4.115448 47.759277 4.938507" fill-rule="evenodd"/><path stroke="#595959" stroke-width="3.0" stroke-linejoin="round" stroke-linecap="butt" stroke-dasharray="3.0,9.0" d="m114.73978 129.13684c6.705414 17.770172 25.036728 82.26727 40.232468 106.62105c15.195755 24.353775 29.892487 30.655258 50.94203 39.501602c21.049545 8.8463745 54.83612 10.490753 75.355225 13.576599c20.519073 3.0858765 39.799408 4.115448 47.759277 4.938507" fill-rule="evenodd"/><path fill="#000000" fill-opacity="0.0" d="m384.1926 243.17912c4.4220886 4.5262604 14.681 21.191208 26.532532 27.157516c11.851532 5.966278 27.595306 7.2001953 44.5766 8.640228c16.981293 1.440033 47.759277 0 57.311127 0" fill-rule="evenodd"/><path stroke="#595959" stroke-width="3.0" stroke-linejoin="round" stroke-linecap="butt" stroke-dasharray="12.0,9.0" d="m384.1926 243.17912c4.4220886 4.5262604 14.681 21.191208 26.532532 27.157516c11.851532 5.966278 27.595306 7.2001953 44.5766 8.640228c16.981293 1.440033 47.759277 0 57.311127 0" fill-rule="evenodd"/><path fill="#000000" fill-opacity="0.0" d="m560.35626 248.57437c6.8986816 5.5547485 18.042847 25.51062 41.39203 33.32849c23.349182 7.817871 82.252686 11.315613 98.703186 13.578735" fill-rule="evenodd"/><path stroke="#595959" stroke-width="3.0" stroke-linejoin="round" stroke-linecap="butt" d="m560.35626 248.57437c6.8986816 5.5547485 18.042847 25.51062 41.39203 33.32849c23.349182 7.817871 82.252686 11.315613 98.703186 13.578735" fill-rule="evenodd"/><path fill="#000000" fill-opacity="0.0" d="m231.33916 327.99002l0 -245.82678" fill-rule="evenodd"/><path stroke="#595959" stroke-width="1.0" stroke-linejoin="round" stroke-linecap="butt" d="m231.33916 327.99002l0 -239.82678" fill-rule="evenodd"/><path fill="#595959" stroke="#595959" stroke-width="1.0" stroke-linecap="butt" d="m232.99089 88.16324l-1.6517334 -4.538101l-1.6517334 4.538101z" fill-rule="evenodd"/><path fill="#000000" fill-opacity="0.0" d="m268.48242 129.137l0 71.52756" fill-rule="evenodd"/><path stroke="#595959" stroke-width="3.0" stroke-linejoin="round" stroke-linecap="butt" d="m268.48242 129.137l0 71.52756" fill-rule="evenodd"/><path fill="#000000" fill-opacity="0.0" d="m268.48392 144.48003l0 178.70866" fill-rule="evenodd"/><path stroke="#595959" stroke-width="1.0" stroke-linejoin="round" stroke-linecap="butt" stroke-dasharray="4.0,3.0" d="m268.48392 144.48003l0 178.70866" fill-rule="evenodd"/><path fill="#000000" fill-opacity="0.0" d="m209.88364 73.4742l42.89763 0l0 34.803146l-42.89763 0z" fill-rule="evenodd"/><path fill="#000000" d="m216.22739 96.1142l0 -1.234375l5.71875 -6.5625q-0.984375 0.046875 -1.71875 0.046875l-3.671875 0l0 -1.234375l7.34375 0l0 1.0l-4.859375 5.703125l-0.9375 1.046875q1.015625 -0.078125 1.921875 -0.078125l4.15625 0l0 1.3125l-7.953125 0z" fill-rule="nonzero"/><path fill="#000000" fill-opacity="0.0" d="m215.4421 323.1928l42.89763 0l0 34.80313l-42.89763 0z" fill-rule="evenodd"/><path fill="#000000" d="m222.16084 339.7078q0 -2.1875 0.453125 -3.53125q0.453125 -1.34375 1.34375 -2.0625q0.890625 -0.734375 2.25 -0.734375q1.0 0 1.75 0.40625q0.75 0.390625 1.234375 1.15625q0.5 0.75 0.78125 1.84375q0.28125 1.078125 0.28125 2.921875q0 2.1875 -0.453125 3.53125q-0.453125 1.34375 -1.34375 2.078125q-0.890625 0.734375 -2.25 0.734375q-1.796875 0 -2.8125 -1.296875q-1.234375 -1.546875 -1.234375 -5.046875zm1.5625 0q0 3.0625 0.71875 4.078125q0.71875 1.0 1.765625 1.0q1.046875 0 1.765625 -1.015625q0.71875 -1.015625 0.71875 -4.0625q0 -3.0625 -0.71875 -4.0625q-0.71875 -1.0 -1.78125 -1.0q-1.046875 0 -1.671875 0.875q-0.796875 1.140625 -0.796875 4.1875z" fill-rule="nonzero"/><path fill="#000000" fill-opacity="0.0" d="m231.33914 327.99054l115.68503 0" fill-rule="evenodd"/><path stroke="#595959" stroke-width="1.0" stroke-linejoin="round" stroke-linecap="butt" d="m231.33914 327.99054l109.68506 0" fill-rule="evenodd"/><path fill="#595959" stroke="#595959" stroke-width="1.0" stroke-linecap="butt" d="m341.0242 329.64227l4.538086 -1.6517334l-4.538086 -1.6517334z" fill-rule="evenodd"/><path fill="#000000" fill-opacity="0.0" d="m268.48416 195.48242l60.283478 131.84253" fill-rule="evenodd"/><path stroke="#595959" stroke-width="3.0" stroke-linejoin="round" stroke-linecap="butt" d="m268.48416 195.48242l60.283478 131.84253" fill-rule="evenodd"/><path fill="#000000" fill-opacity="0.0" d="m331.52863 321.00357l42.897614 0l0 34.80316l-42.897614 0z" fill-rule="evenodd"/><path fill="#000000" d="m347.84113 334.6592l0 1.234375l-2.4375 0q1.125 1.046875 1.125 3.265625q0 2.40625 -1.234375 3.546875q-1.234375 1.140625 -3.0 1.140625q-1.828125 0 -3.015625 -1.1875q-1.171875 -1.1875 -1.171875 -3.515625q0 -2.390625 1.21875 -3.53125q1.234375 -1.15625 2.96875 -1.15625q0.640625 0 1.4375 0.203125l4.109375 0zm-5.5625 1.0625q-1.109375 0 -1.859375 0.859375q-0.75 0.859375 -0.75 2.578125q0 1.703125 0.734375 2.578125q0.734375 0.859375 1.890625 0.859375q1.234375 0 1.953125 -0.890625q0.734375 -0.90625 0.734375 -2.5625q0 -1.484375 -0.671875 -2.453125q-0.65625 -0.96875 -2.03125 -0.96875z" fill-rule="nonzero"/><path fill="#000000" fill-opacity="0.0" d="m444.60995 325.80115l0 -245.82678" fill-rule="evenodd"/><path stroke="#595959" stroke-width="1.0" stroke-linejoin="round" stroke-linecap="butt" d="m444.60995 325.80115l0 -239.82678" fill-rule="evenodd"/><path fill="#595959" stroke="#595959" stroke-width="1.0" stroke-linecap="butt" d="m446.2617 85.97437l-1.6517334 -4.5380936l-1.6517334 4.5380936z" fill-rule="evenodd"/><path fill="#000000" fill-opacity="0.0" d="m481.75323 126.94814l0 120.7244" fill-rule="evenodd"/><path stroke="#595959" stroke-width="3.0" stroke-linejoin="round" stroke-linecap="butt" d="m481.75323 126.94814l0 120.7244" fill-rule="evenodd"/><path fill="#000000" fill-opacity="0.0" d="m481.7547 142.29115l0 178.70866" fill-rule="evenodd"/><path stroke="#595959" stroke-width="1.0" stroke-linejoin="round" stroke-linecap="butt" stroke-dasharray="4.0,3.0" d="m481.7547 142.29115l0 178.70866" fill-rule="evenodd"/><path fill="#000000" fill-opacity="0.0" d="m423.15442 71.28534l42.897644 0l0 34.803146l-42.897644 0z" fill-rule="evenodd"/><path fill="#000000" d="m429.49817 93.92534l0 -1.234375l5.71875 -6.5625q-0.984375 0.046875 -1.71875 0.046875l-3.671875 0l0 -1.234375l7.34375 0l0 1.0l-4.859375 5.703125l-0.9375 1.046875q1.015625 -0.078125 1.921875 -0.078125l4.15625 0l0 1.3125l-7.953125 0z" fill-rule="nonzero"/><path fill="#000000" fill-opacity="0.0" d="m428.7129 321.00394l42.897644 0l0 34.80316l-42.897644 0z" fill-rule="evenodd"/><path fill="#000000" d="m435.43164 337.51895q0 -2.1875 0.453125 -3.53125q0.453125 -1.34375 1.34375 -2.0625q0.890625 -0.734375 2.25 -0.734375q1.0 0 1.75 0.40625q0.75 0.390625 1.234375 1.15625q0.5 0.75 0.78125 1.84375q0.28125 1.078125 0.28125 2.921875q0 2.1875 -0.453125 3.53125q-0.453125 1.34375 -1.34375 2.078125q-0.890625 0.734375 -2.25 0.734375q-1.796875 0 -2.8125 -1.296875q-1.234375 -1.546875 -1.234375 -5.046875zm1.5625 0q0 3.0625 0.71875 4.078125q0.71875 1.0 1.765625 1.0q1.046875 0 1.765625 -1.015625q0.71875 -1.015625 0.71875 -4.0625q0 -3.0625 -0.71875 -4.0625q-0.71875 -1.0 -1.78125 -1.0q-1.046875 0 -1.671875 0.875q-0.796875 1.140625 -0.796875 4.1875z" fill-rule="nonzero"/><path fill="#000000" fill-opacity="0.0" d="m444.60992 325.80167l115.68506 0" fill-rule="evenodd"/><path stroke="#595959" stroke-width="1.0" stroke-linejoin="round" stroke-linecap="butt" d="m444.60995 325.80167l109.68503 0" fill-rule="evenodd"/><path fill="#595959" stroke="#595959" stroke-width="1.0" stroke-linecap="butt" d="m554.295 327.4534l4.538086 -1.6517334l-4.538086 -1.6517334z" fill-rule="evenodd"/><path fill="#000000" fill-opacity="0.0" d="m483.1726 250.14046l22.897614 29.606308" fill-rule="evenodd"/><path stroke="#595959" stroke-width="3.0" stroke-linejoin="round" stroke-linecap="butt" d="m483.1726 250.14046l22.897614 29.606308" fill-rule="evenodd"/><path fill="#000000" fill-opacity="0.0" d="m544.7994 318.81473l42.897644 0l0 34.80313l-42.897644 0z" fill-rule="evenodd"/><path fill="#000000" d="m561.1119 332.47034l0 1.234375l-2.4375 0q1.125 1.046875 1.125 3.265625q0 2.40625 -1.234375 3.546875q-1.234375 1.140625 -3.0 1.140625q-1.828125 0 -3.015625 -1.1875q-1.171875 -1.1875 -1.171875 -3.515625q0 -2.390625 1.21875 -3.53125q1.234375 -1.15625 2.96875 -1.15625q0.640625 0 1.4375 0.203125l4.109375 0zm-5.5625 1.0625q-1.109375 0 -1.859375 0.859375q-0.75 0.859375 -0.75 2.578125q0 1.703125 0.734375 2.578125q0.734375 0.859375 1.890625 0.859375q1.234375 0 1.953125 -0.890625q0.734375 -0.90625 0.734375 -2.5625q0 -1.484375 -0.671875 -2.453125q-0.65625 -0.96875 -2.03125 -0.96875z" fill-rule="nonzero"/><path fill="#000000" fill-opacity="0.0" d="m505.43185 279.62283l0 35.93701" fill-rule="evenodd"/><path stroke="#595959" stroke-width="3.0" stroke-linejoin="round" stroke-linecap="butt" d="m505.43185 279.62283l0 35.93701" fill-rule="evenodd"/><path fill="#000000" fill-opacity="0.0" d="m73.16717 338.40955l52.472443 0.5354614" fill-rule="evenodd"/><path stroke="#595959" stroke-width="2.0" stroke-linejoin="round" stroke-linecap="butt" d="m73.16717 338.40955l40.47307 0.41299438" fill-rule="evenodd"/><path fill="#595959" stroke="#595959" stroke-width="2.0" stroke-linecap="butt" d="m113.60653 342.12582l9.109428 -3.2106628l-9.042015 -3.3959045z" fill-rule="evenodd"/><path fill="#000000" fill-opacity="0.0" d="m67.73491 293.79718l87.33858 0l0 34.80316l-87.33858 0z" fill-rule="evenodd"/><path fill="#000000" d="m75.04741 316.4372l0 -12.40625l1.6875 0l6.515625 9.734375l0 -9.734375l1.578125 0l0 12.40625l-1.6875 0l-6.515625 -9.75l0 9.75l-1.578125 0zm11.779449 -4.5q0 -2.484375 1.390625 -3.6875q1.15625 -1.0 2.8125 -1.0q1.859375 0 3.03125 1.21875q1.1875 1.203125 1.1875 3.34375q0 1.734375 -0.53125 2.734375q-0.515625 1.0 -1.515625 1.546875q-0.984375 0.546875 -2.171875 0.546875q-1.875 0 -3.046875 -1.203125q-1.15625 -1.21875 -1.15625 -3.5zm1.5625 0q0 1.734375 0.75 2.59375q0.75 0.859375 1.890625 0.859375q1.140625 0 1.890625 -0.859375q0.75 -0.875 0.75 -2.640625q0 -1.65625 -0.75 -2.515625q-0.75 -0.859375 -1.890625 -0.859375q-1.140625 0 -1.890625 0.859375q-0.75 0.84375 -0.75 2.5625zm8.62146 4.5l0 -8.984375l1.375 0l0 1.359375q0.515625 -0.953125 0.953125 -1.25q0.453125 -0.3125 0.984375 -0.3125q0.78125 0 1.5625 0.484375l-0.515625 1.421875q-0.5625 -0.328125 -1.125 -0.328125q-0.5 0 -0.890625 0.296875q-0.390625 0.296875 -0.5625 0.828125q-0.265625 0.8125 -0.265625 1.78125l0 4.703125l-1.515625 0zm9.114151 -1.359375l0.21875 1.34375q-0.640625 0.140625 -1.15625 0.140625q-0.828125 0 -1.28125 -0.265625q-0.453125 -0.265625 -0.640625 -0.6875q-0.1875 -0.4375 -0.1875 -1.796875l0 -5.171875l-1.125 0l0 -1.1875l1.125 0l0 -2.21875l1.515625 -0.921875l0 3.140625l1.53125 0l0 1.1875l-1.53125 0l0 5.25q0 0.65625 0.078125 0.84375q0.078125 0.1875 0.25 0.296875q0.1875 0.109375 0.53125 0.109375q0.25 0 0.671875 -0.0625zm1.4861908 1.359375l0 -12.40625l1.53125 0l0 4.453125q1.0625 -1.234375 2.6875 -1.234375q1.0 0 1.734375 0.390625q0.734375 0.390625 1.046875 1.09375q0.328125 0.6875 0.328125 2.015625l0 5.6875l-1.53125 0l0 -5.6875q0 -1.15625 -0.5 -1.671875q-0.484375 -0.515625 -1.390625 -0.515625q-0.6875 0 -1.28125 0.359375q-0.59375 0.34375 -0.84375 0.953125q-0.25 0.59375 -0.25 1.640625l0 4.921875l-1.53125 0z" fill-rule="nonzero"/><path fill="#eeeeee" d="m89.94534 98.09318l10.724411 0l0 -17.968506l21.448822 0l0 17.968506l10.724411 0l-21.448822 17.968506z" fill-rule="evenodd"/><path stroke="#595959" stroke-width="1.0" stroke-linejoin="round" stroke-linecap="butt" d="m89.94534 98.09318l10.724411 0l0 -17.968506l21.448822 0l0 17.968506l10.724411 0l-21.448822 17.968506z" fill-rule="evenodd"/><path fill="#000000" fill-opacity="0.0" d="m78.26716 45.742905l87.338585 0l0 34.803146l-87.338585 0z" fill-rule="evenodd"/><path fill="#000000" d="m84.23591 68.382904l4.765625 -12.40625l1.765625 0l5.078125 12.40625l-1.859375 0l-1.453125 -3.75l-5.1875 0l-1.359375 3.75l-1.75 0zm3.578125 -5.09375l4.21875 0l-1.296875 -3.4375q-0.59375 -1.5625 -0.890625 -2.5625q-0.234375 1.1875 -0.65625 2.359375l-1.375 3.640625zm7.979599 5.09375l4.765625 -12.40625l1.765625 0l5.078125 12.40625l-1.859375 0l-1.453125 -3.75l-5.1875 0l-1.359375 3.75l-1.75 0zm3.578125 -5.09375l4.21875 0l-1.296875 -3.4375q-0.59375 -1.5625 -0.890625 -2.5625q-0.234375 1.1875 -0.65625 2.359375l-1.375 3.640625zm9.276474 5.09375l0 -12.40625l4.65625 0q1.421875 0 2.28125 0.375q0.859375 0.375 1.34375 1.171875q0.484375 0.78125 0.484375 1.625q0 0.796875 -0.4375 1.5q-0.421875 0.703125 -1.296875 1.140625q1.125 0.328125 1.734375 1.125q0.609375 0.796875 0.609375 1.875q0 0.875 -0.375 1.625q-0.359375 0.734375 -0.90625 1.140625q-0.546875 0.40625 -1.359375 0.625q-0.8125 0.203125 -2.0 0.203125l-4.734375 0zm1.640625 -7.1875l2.6875 0q1.09375 0 1.5625 -0.140625q0.625 -0.1875 0.9375 -0.625q0.328125 -0.4375 0.328125 -1.078125q0 -0.625 -0.296875 -1.09375q-0.296875 -0.46875 -0.859375 -0.640625q-0.546875 -0.171875 -1.875 -0.171875l-2.484375 0l0 3.75zm0 5.71875l3.09375 0q0.796875 0 1.109375 -0.046875q0.578125 -0.109375 0.953125 -0.34375q0.375 -0.234375 0.625 -0.6875q0.25 -0.453125 0.25 -1.046875q0 -0.703125 -0.359375 -1.203125q-0.359375 -0.515625 -0.984375 -0.71875q-0.625 -0.21875 -1.8125 -0.21875l-2.875 0l0 4.265625zm12.151474 1.46875l-3.28125 -12.40625l1.671875 0l1.890625 8.140625q0.3125 1.265625 0.53125 2.53125q0.46875 -1.984375 0.546875 -2.296875l2.359375 -8.375l1.9843826 0l1.78125 6.28125q0.671875 2.328125 0.96875 4.390625q0.234375 -1.171875 0.609375 -2.703125l1.953125 -7.96875l1.640625 0l-3.390625 12.40625l-1.59375 0l-2.6093826 -9.453125q-0.328125 -1.1875 -0.390625 -1.453125q-0.1875 0.859375 -0.359375 1.453125l-2.640625 9.453125l-1.671875 0z" fill-rule="nonzero"/><path fill="#eeeeee" d="m345.09424 207.45998l14.881897 0l0 -4.007889l8.015747 8.015762l-8.015747 8.015747l0 -4.0078735l-14.881897 0z" fill-rule="evenodd"/><path stroke="#595959" stroke-width="1.0" stroke-linejoin="round" stroke-linecap="butt" d="m345.09424 207.45998l14.881897 0l0 -4.007889l8.015747 8.015762l-8.015747 8.015747l0 -4.0078735l-14.881897 0z" fill-rule="evenodd"/><path fill="#eeeeee" d="m579.11566 171.80461l18.897583 -31.65355l0 15.826767l18.897644 0l0 31.65355l-18.897644 0l0 15.826767z" fill-rule="evenodd"/><path stroke="#595959" stroke-width="1.0" stroke-linejoin="round" stroke-linecap="butt" d="m579.11566 171.80461l18.897583 -31.65355l0 15.826767l18.897644 0l0 31.65355l-18.897644 0l0 15.826767z" fill-rule="evenodd"/><path fill="#000000" fill-opacity="0.0" d="m621.2704 151.93541l87.33856 0l0 34.803146l-87.33856 0z" fill-rule="evenodd"/><path fill="#000000" d="m628.5829 174.57541l0 -12.40625l1.6875 0l6.515625 9.734375l0 -9.734375l1.578125 0l0 12.40625l-1.6875 0l-6.515625 -9.75l0 9.75l-1.578125 0zm11.170044 0l4.765625 -12.40625l1.765625 0l5.078125 12.40625l-1.859375 0l-1.453125 -3.75l-5.1875 0l-1.359375 3.75l-1.75 0zm3.578125 -5.09375l4.21875 0l-1.296875 -3.4375q-0.59375 -1.5625 -0.890625 -2.5625q-0.234375 1.1875 -0.65625 2.359375l-1.375 3.640625zm9.354614 5.09375l0 -12.40625l4.265625 0q1.453125 0 2.203125 0.1875q1.078125 0.234375 1.828125 0.875q0.984375 0.828125 1.46875 2.125q0.484375 1.296875 0.484375 2.953125q0 1.40625 -0.328125 2.5q-0.328125 1.09375 -0.84375 1.8125q-0.515625 0.703125 -1.140625 1.125q-0.609375 0.40625 -1.484375 0.625q-0.859375 0.203125 -1.984375 0.203125l-4.46875 0zm1.640625 -1.46875l2.640625 0q1.234375 0 1.921875 -0.21875q0.703125 -0.234375 1.125 -0.640625q0.578125 -0.59375 0.90625 -1.578125q0.328125 -0.984375 0.328125 -2.390625q0 -1.9375 -0.640625 -2.984375q-0.640625 -1.046875 -1.5625 -1.40625q-0.65625 -0.25 -2.125 -0.25l-2.59375 0l0 9.46875zm13.029419 1.46875l-3.28125 -12.40625l1.671875 0l1.890625 8.140625q0.3125 1.265625 0.53125 2.53125q0.46875 -1.984375 0.546875 -2.296875l2.359375 -8.375l1.984375 0l1.78125 6.28125q0.671875 2.328125 0.96875 4.390625q0.234375 -1.171875 0.609375 -2.703125l1.953125 -7.96875l1.640625 0l-3.390625 12.40625l-1.59375 0l-2.609375 -9.453125q-0.328125 -1.1875 -0.390625 -1.453125q-0.1875 0.859375 -0.359375 1.453125l-2.640625 9.453125l-1.671875 0z" fill-rule="nonzero"/></g></svg>